<?xml version="1.0" encoding="UTF-8" standalone="no"?>
<!DOCTYPE svg PUBLIC "-//W3C//DTD SVG 1.1//EN"
 "http://www.w3.org/Graphics/SVG/1.1/DTD/svg11.dtd">
<!-- Generated by graphviz version 2.38.0 (20140413.2041)
 -->
<!-- Title: %3 Pages: 1 -->
<svg width="880pt" height="231pt"
 viewBox="0.00 0.00 879.84 231.00" xmlns="http://www.w3.org/2000/svg" xmlns:xlink="http://www.w3.org/1999/xlink">
<g id="graph0" class="graph" transform="scale(1 1) rotate(0) translate(4 227)">
<title>%3</title>
<polygon fill="#3f3f3f" stroke="none" points="-4,4 -4,-227 875.84,-227 875.84,4 -4,4"/>
<text text-anchor="middle" x="435.92" y="-9.2" font-family="Times New Roman,serif" font-size="16.00" fill="white">Network Map</text>
<!-- R2 -->
<g id="node1" class="node"><title>R2</title>
<polygon fill="#006699" stroke="#006699" points="218.34,-99 141.34,-99 141.34,-26 218.34,-26 218.34,-99"/>
<text text-anchor="middle" x="179.84" y="-58.8" font-family="Helvetica,sans-Serif" font-size="14.00" fill="white">R2</text>
</g>
<!-- SW1 -->
<g id="node3" class="node"><title>SW1</title>
<polygon fill="#006699" stroke="#006699" points="655.34,-223 564.34,-223 564.34,-150 655.34,-150 655.34,-223"/>
<text text-anchor="middle" x="609.84" y="-182.8" font-family="Helvetica,sans-Serif" font-size="14.00" fill="white">SW1</text>
</g>
<!-- R2&#45;&#45;SW1 -->
<g id="edge2" class="edge"><title>R2&#45;&#45;SW1</title>
<path fill="none" stroke="green" stroke-dasharray="5,2" d="M218.662,-81.9874C237.844,-91.6379 261.059,-104.105 280.84,-117 289.853,-122.875 290.014,-127.617 299.84,-132 346.413,-152.776 490.006,-171.71 564.284,-180.434"/>
<text text-anchor="middle" x="349.84" y="-120.8" font-family="Courier,monospace" font-size="14.00" fill="white"> &#160;&#160;&#160;&#160;&#160;&#160;&#160;&#160;&#160;&#160;&#160;</text>
<text text-anchor="middle" x="535.284" y="-169.234" font-family="Courier,monospace" font-size="14.00" fill="white">Eth 0/2</text>
<text text-anchor="middle" x="247.662" y="-70.7874" font-family="Courier,monospace" font-size="14.00" fill="white">Eth 0/0</text>
</g>
<!-- R5 -->
<g id="node4" class="node"><title>R5</title>
<polygon fill="#006699" stroke="#006699" points="341.34,-223 264.34,-223 264.34,-150 341.34,-150 341.34,-223"/>
<text text-anchor="middle" x="302.84" y="-182.8" font-family="Helvetica,sans-Serif" font-size="14.00" fill="white">R5</text>
</g>
<!-- R2&#45;&#45;R5 -->
<g id="edge3" class="edge"><title>R2&#45;&#45;R5</title>
<path fill="none" stroke="green" stroke-dasharray="5,2" d="M173.123,-99.1787C172.806,-110.477 174.525,-122.487 180.84,-132 199.324,-159.843 235.811,-173.299 264.089,-179.739"/>
<text text-anchor="middle" x="230.84" y="-120.8" font-family="Courier,monospace" font-size="14.00" fill="white"> &#160;&#160;&#160;&#160;&#160;&#160;&#160;&#160;&#160;&#160;&#160;</text>
<text text-anchor="middle" x="235.089" y="-168.539" font-family="Courier,monospace" font-size="14.00" fill="white">Eth 0/0</text>
<text text-anchor="middle" x="144.123" y="-102.979" font-family="Courier,monospace" font-size="14.00" fill="white">Eth 0/1</text>
</g>
<!-- R6 -->
<g id="node6" class="node"><title>R6</title>
<polygon fill="#006699" stroke="#006699" points="95.34,-223 18.34,-223 18.34,-150 95.34,-150 95.34,-223"/>
<text text-anchor="middle" x="56.84" y="-182.8" font-family="Helvetica,sans-Serif" font-size="14.00" fill="white">R6</text>
</g>
<!-- R2&#45;&#45;R6 -->
<g id="edge4" class="edge"><title>R2&#45;&#45;R6</title>
<path fill="none" stroke="green" stroke-dasharray="5,2" d="M141.206,-73.0553C117.387,-80.939 88.1801,-94.5678 70.84,-117 63.6392,-126.315 59.8853,-138.406 58,-149.831"/>
<text text-anchor="middle" x="120.84" y="-120.8" font-family="Courier,monospace" font-size="14.00" fill="white"> &#160;&#160;&#160;&#160;&#160;&#160;&#160;&#160;&#160;&#160;&#160;</text>
<text text-anchor="middle" x="29" y="-138.631" font-family="Courier,monospace" font-size="14.00" fill="white">Eth 0/1</text>
<text text-anchor="middle" x="112.206" y="-61.8553" font-family="Courier,monospace" font-size="14.00" fill="white">Eth 0/2</text>
</g>
<!-- R4 -->
<g id="node2" class="node"><title>R4</title>
<polygon fill="#006699" stroke="#006699" points="525.34,-99 448.34,-99 448.34,-26 525.34,-26 525.34,-99"/>
<text text-anchor="middle" x="486.84" y="-58.8" font-family="Helvetica,sans-Serif" font-size="14.00" fill="white">R4</text>
</g>
<!-- R4&#45;&#45;SW1 -->
<g id="edge6" class="edge"><title>R4&#45;&#45;SW1</title>
<path fill="none" stroke="green" stroke-dasharray="5,2" d="M515.794,-99.3401C525.042,-110.168 535.554,-121.865 545.84,-132 551.926,-137.997 558.606,-144.072 565.284,-149.869"/>
<text text-anchor="middle" x="595.84" y="-120.8" font-family="Courier,monospace" font-size="14.00" fill="white"> &#160;&#160;&#160;&#160;&#160;&#160;&#160;&#160;&#160;&#160;&#160;</text>
<text text-anchor="middle" x="536.284" y="-138.669" font-family="Courier,monospace" font-size="14.00" fill="white">Eth 0/4</text>
<text text-anchor="middle" x="486.794" y="-103.14" font-family="Courier,monospace" font-size="14.00" fill="white">Eth 0/0</text>
</g>
<!-- R4&#45;&#45;R5 -->
<g id="edge7" class="edge"><title>R4&#45;&#45;R5</title>
<path fill="none" stroke="green" stroke-dasharray="5,2" d="M448.003,-98.3057C434.481,-109.668 418.914,-121.939 403.84,-132 384.2,-145.109 360.995,-157.591 341.783,-167.196"/>
<text text-anchor="middle" x="472.84" y="-120.8" font-family="Courier,monospace" font-size="14.00" fill="white"> &#160;&#160;&#160;&#160;&#160;&#160;&#160;&#160;&#160;&#160;&#160;</text>
<text text-anchor="middle" x="370.783" y="-155.996" font-family="Courier,monospace" font-size="14.00" fill="white">Eth 0/1</text>
<text text-anchor="middle" x="419.003" y="-87.1057" font-family="Courier,monospace" font-size="14.00" fill="white">Eth 0/1</text>
</g>
<!-- R1 -->
<g id="node5" class="node"><title>R1</title>
<polygon fill="#006699" stroke="#006699" points="833.34,-99 756.34,-99 756.34,-26 833.34,-26 833.34,-99"/>
<text text-anchor="middle" x="794.84" y="-58.8" font-family="Helvetica,sans-Serif" font-size="14.00" fill="white">R1</text>
</g>
<!-- R1&#45;&#45;SW1 -->
<g id="edge1" class="edge"><title>R1&#45;&#45;SW1</title>
<path fill="none" stroke="green" stroke-dasharray="5,2" d="M782.705,-99.348C777.261,-111.056 769.775,-123.277 759.84,-132 730.441,-157.812 687.714,-171.435 655.375,-178.457"/>
<text text-anchor="middle" x="821.84" y="-120.8" font-family="Courier,monospace" font-size="14.00" fill="white"> &#160;&#160;&#160;&#160;&#160;&#160;&#160;&#160;&#160;&#160;&#160;</text>
<text text-anchor="middle" x="684.375" y="-167.257" font-family="Courier,monospace" font-size="14.00" fill="white">Eth 0/1</text>
<text text-anchor="middle" x="753.705" y="-103.148" font-family="Courier,monospace" font-size="14.00" fill="white">Eth 0/0</text>
</g>
<!-- R3 -->
<g id="node7" class="node"><title>R3</title>
<polygon fill="#006699" stroke="#006699" points="710.34,-99 633.34,-99 633.34,-26 710.34,-26 710.34,-99"/>
<text text-anchor="middle" x="671.84" y="-58.8" font-family="Helvetica,sans-Serif" font-size="14.00" fill="white">R3</text>
</g>
<!-- R3&#45;&#45;SW1 -->
<g id="edge5" class="edge"><title>R3&#45;&#45;SW1</title>
<path fill="none" stroke="green" stroke-dasharray="5,2" d="M662.81,-99.2453C659.433,-110.069 655.11,-121.788 649.84,-132 646.756,-137.977 643.015,-143.993 639.075,-149.721"/>
<text text-anchor="middle" x="705.84" y="-120.8" font-family="Courier,monospace" font-size="14.00" fill="white"> &#160;&#160;&#160;&#160;&#160;&#160;&#160;&#160;&#160;&#160;&#160;</text>
<text text-anchor="middle" x="610.075" y="-138.521" font-family="Courier,monospace" font-size="14.00" fill="white">Eth 0/3</text>
<text text-anchor="middle" x="633.81" y="-103.045" font-family="Courier,monospace" font-size="14.00" fill="white">Eth 0/0</text>
</g>
</g>
</svg>
